<mxfile host="app.diagrams.net" modified="2020-10-14T11:08:03.515Z" agent="5.0 (X11; Linux x86_64) AppleWebKit/537.36 (KHTML, like Gecko) Chrome/86.0.4240.75 Safari/537.36" etag="pIAvzHUhJTF88aYv3G1B" version="13.7.9" type="github">
  <diagram id="k_rvptiCXdyw7t8qA_9R" name="Page-1">
    <mxGraphModel dx="1422" dy="745" grid="1" gridSize="10" guides="1" tooltips="1" connect="1" arrows="1" fold="1" page="1" pageScale="1" pageWidth="827" pageHeight="1169" math="0" shadow="0">
      <root>
        <mxCell id="0" />
        <mxCell id="1" parent="0" />
        <mxCell id="e9bSdHwQU14s3PVtKzrs-24" value="" style="rounded=0;whiteSpace=wrap;html=1;fontFamily=Times New Roman;fontSize=16;" parent="1" vertex="1">
          <mxGeometry x="108" y="160" width="610" height="360" as="geometry" />
        </mxCell>
        <mxCell id="e9bSdHwQU14s3PVtKzrs-1" value="&lt;font style=&quot;font-size: 15px&quot;&gt;MAIN MENU INTERFACE&lt;/font&gt;" style="rounded=0;whiteSpace=wrap;html=1;fontFamily=Times New Roman;fontStyle=1" parent="1" vertex="1">
          <mxGeometry x="117" y="320" width="120" height="50" as="geometry" />
        </mxCell>
        <mxCell id="e9bSdHwQU14s3PVtKzrs-2" value="ADD Customer&lt;br&gt;Interface" style="rounded=0;whiteSpace=wrap;html=1;fontFamily=Times New Roman;fontSize=16;" parent="1" vertex="1">
          <mxGeometry x="327" y="190" width="120" height="40" as="geometry" />
        </mxCell>
        <mxCell id="e9bSdHwQU14s3PVtKzrs-3" value="&lt;font style=&quot;font-size: 16px&quot;&gt;EDIT Customer&lt;br&gt;Interface&lt;/font&gt;" style="rounded=0;whiteSpace=wrap;html=1;fontFamily=Times New Roman;" parent="1" vertex="1">
          <mxGeometry x="327" y="280" width="120" height="40" as="geometry" />
        </mxCell>
        <mxCell id="e9bSdHwQU14s3PVtKzrs-4" value="&lt;font style=&quot;font-size: 16px&quot;&gt;LIST Customer&lt;br&gt;Interface&lt;/font&gt;" style="rounded=0;whiteSpace=wrap;html=1;fontFamily=Times New Roman;" parent="1" vertex="1">
          <mxGeometry x="327" y="460" width="120" height="40" as="geometry" />
        </mxCell>
        <mxCell id="e9bSdHwQU14s3PVtKzrs-5" value="&lt;font style=&quot;font-size: 16px&quot;&gt;DELETE Customer&amp;nbsp;&lt;br&gt;Interface&lt;/font&gt;" style="rounded=0;whiteSpace=wrap;html=1;fontFamily=Times New Roman;" parent="1" vertex="1">
          <mxGeometry x="327" y="360" width="120" height="60" as="geometry" />
        </mxCell>
        <mxCell id="e9bSdHwQU14s3PVtKzrs-6" value="Validation" style="rounded=0;whiteSpace=wrap;html=1;fontFamily=Times New Roman;fontSize=16;" parent="1" vertex="1">
          <mxGeometry x="558" y="190" width="120" height="40" as="geometry" />
        </mxCell>
        <mxCell id="e9bSdHwQU14s3PVtKzrs-8" value="Data Search" style="rounded=0;whiteSpace=wrap;html=1;fontFamily=Times New Roman;fontSize=16;" parent="1" vertex="1">
          <mxGeometry x="558" y="250" width="120" height="40" as="geometry" />
        </mxCell>
        <mxCell id="e9bSdHwQU14s3PVtKzrs-10" value="FILE&amp;nbsp; Management" style="rounded=0;whiteSpace=wrap;html=1;fontFamily=Times New Roman;fontSize=16;" parent="1" vertex="1">
          <mxGeometry x="520" y="405" width="120" height="50" as="geometry" />
        </mxCell>
        <mxCell id="e9bSdHwQU14s3PVtKzrs-27" value="" style="endArrow=none;html=1;fontFamily=Times New Roman;fontSize=16;entryX=0;entryY=0.175;entryDx=0;entryDy=0;entryPerimeter=0;startArrow=oval;startFill=0;" parent="1" target="e9bSdHwQU14s3PVtKzrs-24" edge="1">
          <mxGeometry width="50" height="50" relative="1" as="geometry">
            <mxPoint x="78" y="223" as="sourcePoint" />
            <mxPoint x="478" y="310" as="targetPoint" />
          </mxGeometry>
        </mxCell>
        <mxCell id="e9bSdHwQU14s3PVtKzrs-29" value="" style="endArrow=none;html=1;fontFamily=Times New Roman;fontSize=16;entryX=0;entryY=0.175;entryDx=0;entryDy=0;entryPerimeter=0;startArrow=oval;startFill=0;" parent="1" edge="1">
          <mxGeometry width="50" height="50" relative="1" as="geometry">
            <mxPoint x="78" y="279" as="sourcePoint" />
            <mxPoint x="108" y="279" as="targetPoint" />
          </mxGeometry>
        </mxCell>
        <mxCell id="e9bSdHwQU14s3PVtKzrs-30" value="Display" style="text;html=1;resizable=0;autosize=1;align=center;verticalAlign=middle;points=[];fillColor=none;strokeColor=none;rounded=0;fontFamily=Times New Roman;fontSize=16;" parent="1" vertex="1">
          <mxGeometry x="10" y="210" width="70" height="20" as="geometry" />
        </mxCell>
        <mxCell id="e9bSdHwQU14s3PVtKzrs-31" value="Keyboard" style="text;html=1;resizable=0;autosize=1;align=center;verticalAlign=middle;points=[];fillColor=none;strokeColor=none;rounded=0;fontFamily=Times New Roman;fontSize=16;" parent="1" vertex="1">
          <mxGeometry x="1" y="270" width="80" height="20" as="geometry" />
        </mxCell>
        <mxCell id="e9bSdHwQU14s3PVtKzrs-34" value="" style="endArrow=none;html=1;fontFamily=Times New Roman;fontSize=16;entryX=1.002;entryY=0.414;entryDx=0;entryDy=0;entryPerimeter=0;startArrow=oval;startFill=0;" parent="1" edge="1">
          <mxGeometry width="50" height="50" relative="1" as="geometry">
            <mxPoint x="760" y="440" as="sourcePoint" />
            <mxPoint x="719.2200000000003" y="440.03999999999996" as="targetPoint" />
          </mxGeometry>
        </mxCell>
        <mxCell id="e9bSdHwQU14s3PVtKzrs-35" value="Database" style="text;html=1;resizable=0;autosize=1;align=center;verticalAlign=middle;points=[];fillColor=none;strokeColor=none;rounded=0;fontFamily=Times New Roman;fontSize=16;" parent="1" vertex="1">
          <mxGeometry x="757" y="420" width="70" height="20" as="geometry" />
        </mxCell>
      </root>
    </mxGraphModel>
  </diagram>
</mxfile>
